<?xml version="1.0" encoding="UTF-8" standalone="no"?>
<!-- Created with Inkscape (http://www.inkscape.org/) -->

<svg
   width="335.85999mm"
   height="167.95mm"
   viewBox="0 0 335.85999 167.95"
   version="1.1"
   id="svg3604"
   inkscape:version="1.1.1 (3bf5ae0d25, 2021-09-20)"
   sodipodi:docname="tf-logo.svg"
   xmlns:inkscape="http://www.inkscape.org/namespaces/inkscape"
   xmlns:sodipodi="http://sodipodi.sourceforge.net/DTD/sodipodi-0.dtd"
   xmlns="http://www.w3.org/2000/svg"
   xmlns:svg="http://www.w3.org/2000/svg">
  <sodipodi:namedview
     id="namedview3606"
     pagecolor="#505050"
     bordercolor="#eeeeee"
     borderopacity="1"
     inkscape:pageshadow="0"
     inkscape:pageopacity="0"
     inkscape:pagecheckerboard="0"
     inkscape:document-units="mm"
     showgrid="false"
     inkscape:zoom="0.71446409"
     inkscape:cx="655.73625"
     inkscape:cy="426.19357"
     inkscape:window-width="1920"
     inkscape:window-height="991"
     inkscape:window-x="-9"
     inkscape:window-y="-9"
     inkscape:window-maximized="1"
     inkscape:current-layer="layer1" />
  <defs
     id="defs3601" />
  <g
     inkscape:label="Ebene 1"
     inkscape:groupmode="layer"
     id="layer1">
    <g
       id="g3302"
       transform="matrix(0.01,0,0,0.01,-391.91346,-106.83307)">
      <g
         class="com.sun.star.drawing.PolyPolygonShape"
         id="g135"
         transform="translate(-3193.6535,7188.3072)">
        <g
           id="id8">
          <rect
             class="BoundingBox"
             stroke="none"
             fill="none"
             x="42385"
             y="3495"
             width="16790"
             height="5642"
             id="rect130" />
          <path
             fill="#000000"
             stroke="none"
             d="M 42385,3495 H 59174 V 9136 H 42385 Z"
             id="path132" />
        </g>
      </g>
      <g
         class="com.sun.star.drawing.PolyPolygonShape"
         id="g142"
         transform="translate(-3193.6535,7188.3072)">
        <g
           id="id9">
          <rect
             class="BoundingBox"
             stroke="none"
             fill="none"
             x="53472"
             y="3495"
             width="208"
             height="4026"
             id="rect137" />
          <path
             fill="#ffffff"
             stroke="none"
             d="m 53472,3495 h 207 v 4025 h -207 z"
             id="path139" />
        </g>
      </g>
      <g
         class="com.sun.star.drawing.PolyPolygonShape"
         id="g149"
         transform="translate(-3193.6535,7188.3072)">
        <g
           id="id10">
          <rect
             class="BoundingBox"
             stroke="none"
             fill="none"
             x="47867"
             y="5062"
             width="210"
             height="4074"
             id="rect144" />
          <path
             fill="#ffffff"
             stroke="none"
             d="m 47867,5063 h 208 v 4072 h -208 z"
             id="path146" />
        </g>
      </g>
      <g
         class="com.sun.star.drawing.ClosedBezierShape"
         id="g156"
         transform="translate(-3193.6535,7188.3072)">
        <g
           id="id11">
          <rect
             class="BoundingBox"
             stroke="none"
             fill="none"
             x="44040"
             y="5028"
             width="2270"
             height="2516"
             id="rect151" />
          <path
             fill="#ffffff"
             stroke="none"
             d="m 45294,7543 c -734,0 -1254,-514 -1254,-1265 0,-720 549,-1250 1250,-1250 344,0 705,80 930,387 l -343,340 c -90,-144 -312,-248 -583,-248 -376,0 -713,295 -713,771 0,447 280,792 738,792 134,0 436,-27 618,-356 l 372,278 c -279,450 -687,551 -1015,551 z"
             id="path153" />
        </g>
      </g>
      <g
         class="com.sun.star.drawing.ClosedBezierShape"
         id="g163"
         transform="translate(-3193.6535,7188.3072)">
        <g
           id="id12">
          <rect
             class="BoundingBox"
             stroke="none"
             fill="none"
             x="55385"
             y="5089"
             width="1986"
             height="2444"
             id="rect158" />
          <path
             fill="#ffffff"
             stroke="none"
             d="m 56387,7531 c -710,0 -1002,-438 -1002,-985 V 5089 h 544 v 1415 c 0,375 132,542 462,542 327,0 433,-173 433,-542 V 5089 h 546 v 1457 c 0,517 -268,985 -983,985 z"
             id="path160" />
        </g>
      </g>
      <g
         class="com.sun.star.drawing.PolyPolygonShape"
         id="g170"
         transform="translate(-3193.6535,7188.3072)">
        <g
           id="id13">
          <rect
             class="BoundingBox"
             stroke="none"
             fill="none"
             x="49569"
             y="4952"
             width="2407"
             height="2556"
             id="rect165" />
          <path
             fill="#ffffff"
             stroke="none"
             d="m 51391,7507 -251,-557 h -739 l -251,557 h -581 l 1201,-2555 1205,2555 z m -621,-1402 -213,451 h 427 z"
             id="path167" />
        </g>
      </g>
      <g
         id="id14"
         transform="translate(-3193.6535,7233.3072)">
        <rect
           class="BoundingBox"
           stroke="none"
           fill="none"
           x="42385"
           y="9091"
           width="33586"
           height="5643"
           id="rect172" />
        <path
           fill="#d9d9d9"
           stroke="none"
           d="m 42385,9091 h 33585 v 5642 H 42385 Z"
           id="path174" />
      </g>
      <g
         class="com.sun.star.drawing.PolyPolygonShape"
         id="g184"
         transform="translate(-3193.6535,7188.3072)">
        <g
           id="id15">
          <rect
             class="BoundingBox"
             stroke="none"
             fill="none"
             x="42385"
             y="14699"
             width="33586"
             height="5591"
             id="rect179" />
          <path
             fill="#003d86"
             stroke="none"
             d="m 42385,14699 h 33585 v 5590 H 42385 Z"
             id="path181" />
        </g>
      </g>
      <g
         class="com.sun.star.drawing.ClosedBezierShape"
         id="g191"
         transform="translate(-3193.6535,7188.3072)">
        <g
           id="id16">
          <rect
             class="BoundingBox"
             stroke="none"
             fill="none"
             x="43139"
             y="18193"
             width="16053"
             height="1271"
             id="rect186" />
          <path
             fill="#ffffff"
             stroke="none"
             d="m 44025,18198 h -886 v 168 h 346 v 1086 h 194 v -1086 h 346 z m 817,859 v -75 c 0,-261 -139,-433 -383,-433 -229,0 -381,167 -381,455 0,341 179,459 406,459 158,0 243,-48 337,-139 l -115,-109 c -64,64 -118,92 -219,92 -148,0 -230,-94 -230,-250 z m -179,-125 h -406 c 4,-54 7,-83 22,-122 32,-68 93,-111 180,-111 86,0 149,43 179,111 17,39 19,68 25,122 z m 799,-383 c -205,0 -403,121 -403,455 0,336 198,459 403,459 122,0 209,-37 295,-126 l -125,-119 c -57,61 -100,84 -170,84 -71,0 -129,-29 -169,-78 -38,-50 -53,-115 -53,-220 0,-103 15,-167 53,-216 40,-50 98,-78 169,-78 70,0 113,21 170,83 l 125,-120 c -86,-88 -173,-124 -295,-124 z m 702,-351 h -179 v 1254 h 179 v -545 c 0,-136 87,-197 188,-197 101,0 181,58 181,197 v 545 h 182 v -571 c 0,-99 -23,-185 -92,-251 -54,-50 -130,-81 -222,-81 -92,0 -176,33 -237,100 z m 1264,351 c -92,0 -179,33 -239,100 v -89 h -179 v 892 h 181 v -545 c 0,-136 87,-197 188,-197 101,0 179,58 179,197 v 545 h 182 v -571 c 0,-99 -20,-185 -90,-251 -54,-50 -129,-81 -222,-81 z m 791,11 h -182 v 892 h 182 z m 5,-367 h -193 v 187 h 193 z m 595,356 c -190,0 -337,97 -337,271 0,159 95,231 265,248 l 142,14 c 87,9 121,41 121,105 0,83 -84,123 -196,123 -90,0 -188,-19 -260,-95 l -118,119 c 106,104 230,129 378,129 216,0 375,-97 375,-285 0,-154 -98,-237 -286,-251 l -126,-12 c -88,-8 -122,-41 -122,-102 0,-71 52,-114 162,-114 86,0 165,17 225,63 l 112,-113 c -84,-72 -196,-100 -335,-100 z m 967,0 c -202,0 -404,121 -404,455 0,336 202,459 404,459 122,0 209,-37 297,-126 l -123,-119 c -59,61 -104,84 -174,84 -71,0 -129,-29 -169,-78 -38,-50 -53,-115 -53,-220 0,-103 15,-167 53,-216 40,-50 98,-78 169,-78 70,0 115,21 174,83 l 123,-120 c -88,-88 -175,-124 -297,-124 z m 705,-351 h -182 v 1254 h 182 v -545 c 0,-136 83,-197 184,-197 104,0 182,58 182,197 v 545 h 182 v -571 c 0,-99 -21,-185 -89,-251 -53,-50 -131,-81 -223,-81 -94,0 -178,33 -236,100 z m 1561,859 v -75 c 0,-261 -139,-433 -380,-433 -232,0 -384,167 -384,455 0,341 179,459 406,459 157,0 246,-48 340,-139 l -118,-109 c -65,64 -118,92 -219,92 -149,0 -230,-94 -230,-250 z m -179,-125 h -406 c 3,-54 7,-83 25,-122 29,-68 93,-111 180,-111 85,0 146,43 176,111 20,39 22,68 25,122 z m 1677,-734 h -805 v 1254 h 190 v -531 h 526 v -170 h -526 v -385 h 615 z m 468,351 c -151,0 -242,31 -323,130 l 118,112 c 51,-64 101,-89 196,-89 144,0 196,52 196,166 v 64 h -234 c -208,0 -314,109 -314,259 0,74 24,143 72,191 53,56 130,81 242,81 111,0 173,-25 240,-92 v 81 h 176 v -598 c 0,-199 -124,-305 -369,-305 z m 187,508 v 72 c 0,63 -8,106 -37,133 -49,45 -99,51 -165,51 -116,0 -170,-46 -170,-126 0,-84 55,-130 165,-130 z m 661,-859 h -182 v 1254 h 182 v -261 l 131,-150 256,411 h 222 l -352,-542 314,-350 h -221 l -350,410 z m 1513,362 h -179 v 543 c 0,138 -89,199 -190,199 -101,0 -182,-59 -182,-199 v -543 h -179 v 569 c 0,100 20,187 90,253 54,50 129,81 221,81 93,0 179,-34 241,-100 v 89 h 178 z m 480,-362 h -179 v 979 c 0,180 84,275 259,275 h 99 v -159 h -81 c -72,0 -98,-34 -98,-127 z m 583,106 h -179 v 256 h -104 v 136 h 104 v 508 c 0,130 75,248 246,248 h 109 v -153 h -75 c -67,0 -101,-37 -101,-104 v -499 h 176 v -136 h -176 z m 705,245 c -151,0 -237,31 -321,130 l 116,112 c 54,-64 101,-89 199,-89 141,0 196,52 196,166 v 64 h -234 c -211,0 -315,109 -315,259 0,74 26,143 70,191 57,56 132,81 245,81 112,0 173,-25 237,-92 v 81 h 179 v -598 c 0,-199 -122,-305 -372,-305 z m 190,508 v 72 c 0,63 -11,106 -38,133 -49,45 -98,51 -164,51 -119,0 -170,-46 -170,-126 0,-84 54,-130 166,-130 z m 107,-859 h -162 v 188 h 162 z m -384,0 h -162 v 188 h 162 z m 958,106 h -182 v 256 h -104 v 136 h 104 v 508 c 0,130 78,248 246,248 h 109 v -153 h -72 c -70,0 -101,-37 -101,-104 v -499 h 173 v -136 h -173 z"
             id="path188" />
        </g>
      </g>
      <g
         class="com.sun.star.drawing.ClosedBezierShape"
         id="g198"
         transform="translate(-3193.6535,7188.3072)">
        <g
           id="id17">
          <rect
             class="BoundingBox"
             stroke="none"
             fill="none"
             x="43176"
             y="12587"
             width="31907"
             height="1281"
             id="rect193" />
          <path
             fill="#000000"
             stroke="none"
             d="m 75081,13857 v -154 h -81 c -72,0 -98,-36 -98,-102 v -1003 h -179 v 1014 c 0,130 72,245 247,245 z m -800,-522 h -407 c 3,-56 6,-81 23,-122 31,-67 95,-112 182,-112 84,0 148,45 176,112 17,41 23,66 26,122 z m 179,125 v -79 c 0,-255 -141,-430 -381,-430 -233,0 -384,167 -384,456 0,344 179,460 407,460 156,0 243,-47 335,-138 l -115,-110 c -64,65 -116,92 -217,92 -150,0 -231,-98 -231,-251 z m -996,-501 h -182 v 898 h 182 z m 4,-367 h -192 v 192 h 192 z m -411,1265 -453,-767 412,-492 h -236 l -517,633 v -633 h -190 v 1259 h 190 v -365 l 212,-255 358,620 z m -1726,0 v -898 h -182 v 550 c 0,136 -87,196 -188,196 -100,0 -182,-57 -182,-196 v -550 h -180 v 575 c 0,99 20,186 91,252 52,51 128,81 220,81 92,0 179,-33 242,-99 v 89 z m -981,0 v -160 h -450 l 450,-593 v -145 h -646 v 162 h 423 l -449,593 v 143 z m -1230,0 v -154 h -77 c -67,0 -98,-38 -98,-102 v -486 h 175 v -139 h -175 v -273 h -182 v 273 h -102 v 139 h 102 v 494 c 0,128 78,248 247,248 z m -863,-323 c 0,64 -14,105 -40,133 -49,44 -101,50 -170,50 -111,0 -165,-44 -165,-125 0,-83 55,-132 162,-132 h 213 z m 179,323 v -600 c 0,-203 -124,-306 -369,-306 -151,0 -242,28 -326,127 l 121,112 c 48,-64 95,-86 196,-86 141,0 199,55 199,167 v 64 h -240 c -205,0 -311,110 -311,260 0,75 25,145 72,191 54,57 130,81 242,81 110,0 173,-24 240,-92 v 82 z m -459,-1259 h -165 v 191 h 165 z m 384,0 h -162 v 191 h 162 z m -880,1259 v -154 h -75 c -67,0 -101,-38 -101,-102 v -486 h 176 v -139 h -176 v -273 h -179 v 273 h -104 v 139 h 104 v 494 c 0,128 78,248 246,248 z m -690,-898 h -182 v 898 h 182 z m 5,-367 h -193 v 192 h 193 z m -470,992 c 0,-160 -101,-241 -269,-255 l -143,-11 c -96,-9 -124,-50 -124,-104 0,-65 54,-113 164,-113 87,0 164,17 223,64 l 112,-114 c -84,-72 -199,-100 -332,-100 -188,0 -340,97 -340,273 0,157 98,235 267,248 l 142,11 c 87,9 121,48 121,109 0,84 -87,122 -196,122 -90,0 -188,-20 -260,-95 l -118,121 c 106,103 230,127 378,127 214,0 375,-98 375,-283 z m -788,-549 c -63,-62 -127,-84 -214,-84 -101,0 -193,45 -242,106 v -98 h -176 v 898 h 179 v -545 c 0,-124 84,-202 179,-202 66,0 95,19 138,60 z m -1079,300 h -407 c 3,-56 6,-81 26,-122 28,-67 92,-112 179,-112 83,0 149,45 176,112 20,41 26,66 26,122 z m 179,125 v -79 c 0,-255 -141,-430 -381,-430 -232,0 -384,167 -384,456 0,344 179,460 407,460 159,0 245,-47 338,-138 l -118,-110 c -61,65 -117,92 -217,92 -147,0 -231,-98 -231,-251 z m -884,-501 h -192 l -212,633 -213,-633 h -193 l 331,898 h 148 z m -995,0 h -182 v 898 h 182 z m 6,-367 h -194 v 192 h 194 z m -492,1265 v -572 c 0,-103 -20,-187 -91,-253 -53,-53 -128,-81 -223,-81 -89,0 -176,32 -239,100 v -92 h -179 v 898 h 182 v -548 c 0,-136 84,-199 188,-199 101,0 179,60 179,199 v 548 z m -1047,-423 v -836 h -190 v 826 c 0,168 -107,273 -263,273 -161,0 -265,-105 -265,-273 v -826 h -189 v 836 c 0,257 195,433 454,433 257,0 453,-176 453,-433 z m -1198,-152 h -522 v 167 h 522 z m -779,302 c 0,-160 -101,-241 -269,-255 l -143,-11 c -94,-9 -122,-50 -122,-104 0,-65 55,-113 162,-113 86,0 165,17 225,64 l 110,-114 c -81,-72 -197,-100 -333,-100 -187,0 -337,97 -337,273 0,157 98,235 265,248 l 142,11 c 90,9 124,48 124,109 0,84 -90,122 -199,122 -90,0 -188,-20 -260,-95 l -118,121 c 106,103 230,127 378,127 216,0 375,-98 375,-283 z m -886,273 v -154 h -76 c -68,0 -101,-38 -101,-102 v -486 h 177 v -139 h -177 v -273 h -179 v 273 h -104 v 139 h 104 v 494 c 0,128 78,248 246,248 z m -684,0 v -578 c 0,-195 -112,-328 -314,-328 -90,0 -171,32 -232,100 v -453 h -182 v 1259 h 182 v -551 c 0,-133 81,-196 182,-196 101,0 182,60 182,196 v 551 z m -962,-117 -126,-118 c -56,62 -101,83 -174,83 -68,0 -127,-28 -165,-78 -40,-49 -54,-113 -54,-220 0,-102 14,-167 54,-217 38,-51 97,-80 165,-80 73,0 118,25 174,86 l 126,-121 c -88,-92 -175,-124 -300,-124 -202,0 -401,120 -401,456 0,338 199,460 401,460 125,0 212,-35 300,-127 z m -1100,-405 h -406 c 3,-56 5,-81 25,-122 27,-67 91,-112 179,-112 84,0 148,45 176,112 19,41 22,66 26,122 z m 179,125 v -79 c 0,-255 -141,-430 -381,-430 -233,0 -383,167 -383,456 0,344 179,460 404,460 158,0 248,-47 340,-138 l -118,-110 c -64,65 -118,92 -219,92 -144,0 -228,-98 -228,-251 z m -834,-425 c -63,-62 -129,-84 -216,-84 -101,0 -193,45 -242,106 v -98 h -176 v 898 h 182 v -545 c 0,-124 81,-202 179,-202 63,0 92,19 135,60 z m -1087,372 c 0,160 -23,298 -188,298 -162,0 -188,-138 -188,-298 0,-159 26,-297 188,-297 165,0 188,138 188,297 z m 181,0 c 0,-136 -11,-286 -100,-378 -50,-50 -128,-78 -220,-78 -96,0 -171,22 -237,100 v -453 h -181 v 1259 h 179 v -95 c 68,81 141,105 239,105 89,0 170,-30 220,-78 89,-92 100,-245 100,-382 z m -961,450 v -154 h -83 c -72,0 -98,-36 -98,-102 v -1003 h -180 v 1014 c 0,130 75,245 249,245 z m -921,-415 h -389 l 198,-558 z m 347,415 -465,-1259 h -155 l -463,1259 h 203 l 88,-251 h 497 l 87,251 z m -1244,-575 h -520 v 167 h 520 z m -800,575 v -572 c 0,-103 -23,-187 -92,-253 -53,-53 -130,-81 -222,-81 -90,0 -176,32 -240,100 v -92 h -176 v 898 h 182 v -548 c 0,-136 84,-199 185,-199 103,0 181,60 181,199 v 548 z m -1181,-323 c 0,64 -14,105 -40,133 -48,44 -101,50 -170,50 -113,0 -165,-44 -165,-125 0,-83 55,-132 162,-132 h 213 z m 179,323 v -600 c 0,-203 -123,-306 -369,-306 -152,0 -239,28 -326,127 l 121,112 c 47,-64 98,-86 196,-86 139,0 199,55 199,167 v 64 h -239 c -207,0 -312,110 -312,260 0,75 24,145 73,191 52,57 127,81 239,81 113,0 174,-24 242,-92 v 82 z m -978,-898 h -182 v 898 h 182 z m 6,-367 h -190 v 192 h 190 z m -479,1265 v -154 h -75 c -67,0 -102,-38 -102,-102 v -486 h 177 v -139 h -177 v -273 h -179 v 273 h -104 v 139 h 104 v 494 c 0,128 78,248 247,248 z m -644,-273 c 0,-160 -97,-241 -266,-255 l -142,-11 c -98,-9 -127,-50 -127,-104 0,-65 57,-113 165,-113 84,0 165,17 222,64 l 115,-114 c -84,-72 -199,-100 -337,-100 -187,0 -338,97 -338,273 0,157 98,235 266,248 l 146,11 c 87,9 119,48 119,109 0,84 -86,122 -199,122 -86,0 -184,-20 -257,-95 l -119,121 c 105,103 232,127 376,127 216,0 376,-98 376,-283 z m -979,-625 h -182 v 898 h 182 z m 5,-367 h -193 v 192 h 193 z m -361,443 c -62,-62 -129,-84 -216,-84 -101,0 -193,45 -240,106 v -98 h -176 v 898 h 182 v -545 c 0,-124 81,-202 179,-202 61,0 92,19 133,60 z m -937,822 v -578 c 0,-195 -113,-328 -315,-328 -89,0 -170,32 -231,100 v -453 h -182 v 1259 h 182 v -551 c 0,-133 81,-196 182,-196 101,0 182,60 182,196 v 551 z m -1025,-377 h -193 c -32,129 -118,217 -257,217 -76,0 -144,-30 -188,-78 -63,-67 -77,-139 -77,-392 0,-251 14,-326 77,-394 44,-46 112,-75 188,-75 139,0 222,89 254,218 h 196 c -46,-253 -219,-389 -450,-389 -133,0 -248,49 -335,136 -124,121 -122,260 -122,504 0,242 -2,385 122,507 87,86 202,133 335,133 225,0 407,-136 450,-387 z"
             id="path195" />
        </g>
      </g>
    </g>
  </g>
</svg>
